<svg xmlns="http://www.w3.org/2000/svg" width="1024" height="1024" viewBox="0 0 1024 1024">
<defs>
<filter id="drop" x="-20%" y="-20%" width="140%" height="140%"><feDropShadow dx="0" dy="14" stdDeviation="18" flood-color="#000" flood-opacity="0.35"/></filter>
<filter id="soft" x="-30%" y="-30%" width="160%" height="160%"><feDropShadow dx="0" dy="8" stdDeviation="10" flood-color="#000" flood-opacity="0.28"/></filter>
<linearGradient id="rim" x1="0" y1="0" x2="1" y2="1"><stop offset="0" stop-color="#ffffff" stop-opacity="0.35"/><stop offset="0.5" stop-color="#ffffff" stop-opacity="0.04"/><stop offset="1" stop-color="#ffffff" stop-opacity="0.24499999999999997"/></linearGradient>
<linearGradient id="sheen" x1="0" y1="0" x2="0" y2="1"><stop offset="0" stop-color="#fff" stop-opacity="0.16"/><stop offset="0.45" stop-color="#fff" stop-opacity="0"/></linearGradient>
<clipPath id="body"><rect x="100" y="100" width="824" height="824" rx="186"/></clipPath>
<linearGradient id="bgB" x1="0" y1="0" x2="0" y2="1"><stop offset="0" stop-color="#ffb347"/><stop offset="1" stop-color="#f26b1d"/></linearGradient>
<linearGradient id="page" x1="0" y1="0" x2="0" y2="1"><stop offset="0" stop-color="#ffffff"/><stop offset="1" stop-color="#f6efe6"/></linearGradient>
</defs>
<rect x="100" y="100" width="824" height="824" rx="186" fill="url(#bgB)" filter="url(#drop)"/>
<g clip-path="url(#body)"><g filter="url(#soft)"><path d="M300 230 H620 L724 334 V762 Q724 794 692 794 H332 Q300 794 300 762 V262 Q300 230 332 230 Z" fill="url(#page)"/><path d="M620 230 V310 Q620 334 644 334 H724 Z" fill="#e9dccb"/></g><rect x="356" y="380.0" width="16" height="30" rx="8" fill="#f07a24"/><rect x="386" y="364.0" width="16" height="62" rx="8" fill="#f07a24"/><rect x="416" y="375.0" width="16" height="40" rx="8" fill="#f07a24"/><rect x="446" y="347.0" width="16" height="96" rx="8" fill="#f07a24"/><rect x="476" y="366.0" width="16" height="58" rx="8" fill="#f07a24"/><rect x="506" y="335.0" width="16" height="120" rx="8" fill="#f07a24"/><rect x="536" y="360.0" width="16" height="70" rx="8" fill="#f07a24"/><rect x="566" y="373.0" width="16" height="44" rx="8" fill="#f07a24"/><rect x="596" y="353.0" width="16" height="84" rx="8" fill="#f07a24"/><rect x="626" y="377.0" width="16" height="36" rx="8" fill="#f07a24"/><rect x="356" y="505" width="312" height="30" rx="15" fill="#3a2f2a" opacity="0.82"/><rect x="356" y="573" width="312" height="30" rx="15" fill="#3a2f2a" opacity="0.82"/><rect x="356" y="641" width="230" height="30" rx="15" fill="#3a2f2a" opacity="0.82"/></g>
<rect x="100" y="100" width="824" height="824" rx="186" fill="url(#sheen)"/>
<rect x="104" y="104" width="816" height="816" rx="182" fill="none" stroke="url(#rim)" stroke-width="8"/>
</svg>