<svg xmlns="http://www.w3.org/2000/svg" width="1024" height="1024" viewBox="0 0 1024 1024">
<defs>
<filter id="drop" x="-20%" y="-20%" width="140%" height="140%"><feDropShadow dx="0" dy="14" stdDeviation="18" flood-color="#000" flood-opacity="0.35"/></filter>
<filter id="soft" x="-30%" y="-30%" width="160%" height="160%"><feDropShadow dx="0" dy="8" stdDeviation="10" flood-color="#000" flood-opacity="0.28"/></filter>
<linearGradient id="rim" x1="0" y1="0" x2="1" y2="1"><stop offset="0" stop-color="#ffffff" stop-opacity="0.9"/><stop offset="0.5" stop-color="#ffffff" stop-opacity="0.04"/><stop offset="1" stop-color="#ffffff" stop-opacity="0.63"/></linearGradient>
<linearGradient id="sheen" x1="0" y1="0" x2="0" y2="1"><stop offset="0" stop-color="#fff" stop-opacity="0.16"/><stop offset="0.45" stop-color="#fff" stop-opacity="0"/></linearGradient>
<clipPath id="body"><rect x="100" y="100" width="824" height="824" rx="186"/></clipPath>
<linearGradient id="bgL" x1="0" y1="0" x2="0" y2="1"><stop offset="0" stop-color="#fbf8f3"/><stop offset="1" stop-color="#e7e0d6"/></linearGradient>
<linearGradient id="org" gradientUnits="userSpaceOnUse" x1="0" y1="240" x2="0" y2="790"><stop offset="0" stop-color="#ffa040"/><stop offset="1" stop-color="#e8531f"/></linearGradient>
<linearGradient id="deep" gradientUnits="userSpaceOnUse" x1="0" y1="240" x2="0" y2="620"><stop offset="0" stop-color="#e0561c"/><stop offset="1" stop-color="#b8380f"/></linearGradient>
</defs>
<rect x="100" y="100" width="824" height="824" rx="186" fill="url(#bgL)" filter="url(#drop)"/>
<g clip-path="url(#body)"><g filter="url(#soft)"><path d="M 370 262 H 360 A 110 110 0 0 0 250 372 V 552 A 110 110 0 0 0 360 662 H 372 L 348 772 L 462 662 H 664 A 110 110 0 0 0 774 552 V 372 A 110 110 0 0 0 664 262 H 654" stroke="url(#org)" stroke-width="44" stroke-linecap="round" stroke-linejoin="round" fill="none"/><path d="M 436 262 H 588" stroke="url(#deep)" stroke-width="44" stroke-linecap="round" stroke-linejoin="round" fill="none"/><path d="M 512 262 V 598" stroke="url(#deep)" stroke-width="44" stroke-linecap="round" stroke-linejoin="round" fill="none"/><path d="M 446 370.0 V 566.0" stroke="url(#org)" stroke-width="44" stroke-linecap="round" stroke-linejoin="round" fill="none"/><path d="M 578 370.0 V 566.0" stroke="url(#org)" stroke-width="44" stroke-linecap="round" stroke-linejoin="round" fill="none"/><path d="M 380 404.0 V 532.0" stroke="url(#org)" stroke-width="44" stroke-linecap="round" stroke-linejoin="round" fill="none"/><path d="M 644 404.0 V 532.0" stroke="url(#org)" stroke-width="44" stroke-linecap="round" stroke-linejoin="round" fill="none"/><path d="M 314 436.0 V 500.0" stroke="url(#org)" stroke-width="44" stroke-linecap="round" stroke-linejoin="round" fill="none"/><path d="M 710 436.0 V 500.0" stroke="url(#org)" stroke-width="44" stroke-linecap="round" stroke-linejoin="round" fill="none"/></g></g>
<rect x="100" y="100" width="824" height="824" rx="186" fill="url(#sheen)"/>
<rect x="104" y="104" width="816" height="816" rx="182" fill="none" stroke="url(#rim)" stroke-width="8"/>
</svg>